v 1.414214 0.0 1.414214
v -1.414214 4.0 -1.414214
v -1.414214 0.0 -1.414214
v 1.414214 0.0 -1.414214
v -1.414214 4.0 1.414214
v -1.414214 0.0 1.414214
v -1.492894 0.0 2.907106
v -2.907106 2.0 1.492894
v -2.907106 0.0 1.492894
v -1.492894 0.0 1.492894
v -2.907106 2.0 2.907106
v -2.907106 0.0 2.907106
v 2.907106 0.0 2.907106
v 1.492894 2.0 1.492894
v 1.492894 0.0 1.492894
v 2.907106 0.0 1.492894
v 1.492894 2.0 2.907106
v 1.492894 0.0 2.907106
v 2.907106 0.0 -1.492894
v 1.492894 2.0 -2.907106
v 1.492894 0.0 -2.907106
v 2.907106 0.0 -2.907106
v 1.492894 2.0 -1.492894
v 1.492894 0.0 -1.492894
v -1.492894 0.0 -1.492894
v -2.907106 2.0 -2.907106
v -2.907106 0.0 -2.907106
v -1.492894 0.0 -2.907106
v -2.907106 2.0 -1.492894
v -2.907106 0.0 -1.492894
v -1.414214 4.0 -1.414214
v 1.414214 0.0 1.414214
v -1.414214 0.0 -1.414214
v -1.414214 4.0 1.414214
v 1.414214 0.0 -1.414214
v -1.414214 0.0 1.414214
v -2.907106 2.0 1.492894
v -1.492894 0.0 2.907106
v -2.907106 0.0 1.492894
v -2.907106 2.0 2.907106
v -1.492894 0.0 1.492894
v -2.907106 0.0 2.907106
v 1.492894 2.0 1.492894
v 2.907106 0.0 2.907106
v 1.492894 0.0 1.492894
v 1.492894 2.0 2.907106
v 2.907106 0.0 1.492894
v 1.492894 0.0 2.907106
v 1.492894 2.0 -2.907106
v 2.907106 0.0 -1.492894
v 1.492894 0.0 -2.907106
v 1.492894 2.0 -1.492894
v 2.907106 0.0 -2.907106
v 1.492894 0.0 -1.492894
v -2.907106 2.0 -2.907106
v -1.492894 0.0 -1.492894
v -2.907106 0.0 -2.907106
v -2.907106 2.0 -1.492894
v -1.492894 0.0 -2.907106
v -2.907106 0.0 -1.492894
v 1.414214 4.0 1.414214
v 1.414214 4.0 -1.414214
v -1.492894 2.0 2.907106
v -1.492894 2.0 1.492894
v 2.907106 2.0 2.907106
v 2.907106 2.0 1.492894
v 2.907106 2.0 -1.492894
v 2.907106 2.0 -2.907106
v -1.492894 2.0 -1.492894
v -1.492894 2.0 -2.907106
v 1.414214 4.0 1.414214
v 1.414214 4.0 -1.414214
v -1.492894 2.0 2.907106
v -1.492894 2.0 1.492894
v 2.907106 2.0 2.907106
v 2.907106 2.0 1.492894
v 2.907106 2.0 -1.492894
v 2.907106 2.0 -2.907106
v -1.492894 2.0 -1.492894
v -1.492894 2.0 -2.907106
vt 0.1249 0.24989998
vt 1.0E-4 0.12510002
vt 1.0E-4 0.24989998
vt 0.1249 0.24989998
vt 1.0E-4 0.12510002
vt 1.0E-4 0.24989998
vt 0.1249 0.31239998
vt 0.0626 0.25010002
vt 0.0626 0.31239998
vt 0.1249 0.31239998
vt 0.0626 0.25010002
vt 0.0626 0.31239998
vt 0.1249 0.31239998
vt 0.0626 0.25010002
vt 0.0626 0.31239998
vt 0.1249 0.31239998
vt 0.0626 0.25010002
vt 0.0626 0.31239998
vt 0.1249 0.31239998
vt 0.0626 0.25010002
vt 0.0626 0.31239998
vt 0.1249 0.31239998
vt 0.0626 0.25010002
vt 0.0626 0.31239998
vt 0.1249 0.31239998
vt 0.0626 0.25010002
vt 0.0626 0.31239998
vt 0.1249 0.31239998
vt 0.0626 0.25010002
vt 0.0626 0.31239998
vt 1.0E-4 0.12510002
vt 0.1249 0.24989998
vt 1.0E-4 0.24989998
vt 1.0E-4 0.12510002
vt 0.1249 0.24989998
vt 1.0E-4 0.24989998
vt 0.0626 0.25010002
vt 0.1249 0.31239998
vt 0.0626 0.31239998
vt 0.0626 0.25010002
vt 0.1249 0.31239998
vt 0.0626 0.31239998
vt 0.0626 0.25010002
vt 0.1249 0.31239998
vt 0.0626 0.31239998
vt 0.0626 0.25010002
vt 0.1249 0.31239998
vt 0.0626 0.31239998
vt 0.0626 0.25010002
vt 0.1249 0.31239998
vt 0.0626 0.31239998
vt 0.0626 0.25010002
vt 0.1249 0.31239998
vt 0.0626 0.31239998
vt 0.0626 0.25010002
vt 0.1249 0.31239998
vt 0.0626 0.31239998
vt 0.0626 0.25010002
vt 0.1249 0.31239998
vt 0.0626 0.31239998
vt 0.1249 0.12510002
vt 0.1249 0.12510002
vt 0.1249 0.25010002
vt 0.1249 0.25010002
vt 0.1249 0.25010002
vt 0.1249 0.25010002
vt 0.1249 0.25010002
vt 0.1249 0.25010002
vt 0.1249 0.25010002
vt 0.1249 0.25010002
vt 0.1249 0.12510002
vt 0.1249 0.12510002
vt 0.1249 0.25010002
vt 0.1249 0.25010002
vt 0.1249 0.25010002
vt 0.1249 0.25010002
vt 0.1249 0.25010002
vt 0.1249 0.25010002
vt 0.1249 0.25010002
vt 0.1249 0.25010002
vn -0.7071 0.0 0.7071
vn -0.7071 0.0 0.7071
vn -0.7071 0.0 0.7071
vn 0.7071 0.0 0.7071
vn 0.7071 0.0 0.7071
vn 0.7071 0.0 0.7071
vn -0.7071 0.0 0.7071
vn -0.7071 0.0 0.7071
vn -0.7071 0.0 0.7071
vn 0.7071 0.0 0.7071
vn 0.7071 0.0 0.7071
vn 0.7071 0.0 0.7071
vn -0.7071 0.0 0.7071
vn -0.7071 0.0 0.7071
vn -0.7071 0.0 0.7071
vn 0.7071 0.0 0.7071
vn 0.7071 0.0 0.7071
vn 0.7071 0.0 0.7071
vn -0.7071 0.0 0.7071
vn -0.7071 0.0 0.7071
vn -0.7071 0.0 0.7071
vn 0.7071 0.0 0.7071
vn 0.7071 0.0 0.7071
vn 0.7071 0.0 0.7071
vn -0.7071 0.0 0.7071
vn -0.7071 0.0 0.7071
vn -0.7071 0.0 0.7071
vn 0.7071 0.0 0.7071
vn 0.7071 0.0 0.7071
vn 0.7071 0.0 0.7071
vn 0.7071 0.0 -0.7071
vn 0.7071 0.0 -0.7071
vn 0.7071 0.0 -0.7071
vn -0.7071 0.0 -0.7071
vn -0.7071 0.0 -0.7071
vn -0.7071 0.0 -0.7071
vn 0.7071 0.0 -0.7071
vn 0.7071 0.0 -0.7071
vn 0.7071 0.0 -0.7071
vn -0.7071 0.0 -0.7071
vn -0.7071 0.0 -0.7071
vn -0.7071 0.0 -0.7071
vn 0.7071 0.0 -0.7071
vn 0.7071 0.0 -0.7071
vn 0.7071 0.0 -0.7071
vn -0.7071 0.0 -0.7071
vn -0.7071 0.0 -0.7071
vn -0.7071 0.0 -0.7071
vn 0.7071 0.0 -0.7071
vn 0.7071 0.0 -0.7071
vn 0.7071 0.0 -0.7071
vn -0.7071 0.0 -0.7071
vn -0.7071 0.0 -0.7071
vn -0.7071 0.0 -0.7071
vn 0.7071 0.0 -0.7071
vn 0.7071 0.0 -0.7071
vn 0.7071 0.0 -0.7071
vn -0.7071 0.0 -0.7071
vn -0.7071 0.0 -0.7071
vn -0.7071 0.0 -0.7071
vn -0.7071 0.0 0.7071
vn 0.7071 0.0 0.7071
vn -0.7071 0.0 0.7071
vn 0.7071 0.0 0.7071
vn -0.7071 0.0 0.7071
vn 0.7071 0.0 0.7071
vn -0.7071 0.0 0.7071
vn 0.7071 0.0 0.7071
vn -0.7071 0.0 0.7071
vn 0.7071 0.0 0.7071
vn 0.7071 0.0 -0.7071
vn -0.7071 0.0 -0.7071
vn 0.7071 0.0 -0.7071
vn -0.7071 0.0 -0.7071
vn 0.7071 0.0 -0.7071
vn -0.7071 0.0 -0.7071
vn 0.7071 0.0 -0.7071
vn -0.7071 0.0 -0.7071
vn 0.7071 0.0 -0.7071
vn -0.7071 0.0 -0.7071
f 1/1/1 2/2/2 3/3/3
f 4/4/4 5/5/5 6/6/6
f 7/7/7 8/8/8 9/9/9
f 10/10/10 11/11/11 12/12/12
f 13/13/13 14/14/14 15/15/15
f 16/16/16 17/17/17 18/18/18
f 19/19/19 20/20/20 21/21/21
f 22/22/22 23/23/23 24/24/24
f 25/25/25 26/26/26 27/27/27
f 28/28/28 29/29/29 30/30/30
f 31/31/31 32/32/32 33/33/33
f 34/34/34 35/35/35 36/36/36
f 37/37/37 38/38/38 39/39/39
f 40/40/40 41/41/41 42/42/42
f 43/43/43 44/44/44 45/45/45
f 46/46/46 47/47/47 48/48/48
f 49/49/49 50/50/50 51/51/51
f 52/52/52 53/53/53 54/54/54
f 55/55/55 56/56/56 57/57/57
f 58/58/58 59/59/59 60/60/60
f 1/1/1 61/61/61 2/2/2
f 4/4/4 62/62/62 5/5/5
f 7/7/7 63/63/63 8/8/8
f 10/10/10 64/64/64 11/11/11
f 13/13/13 65/65/65 14/14/14
f 16/16/16 66/66/66 17/17/17
f 19/19/19 67/67/67 20/20/20
f 22/22/22 68/68/68 23/23/23
f 25/25/25 69/69/69 26/26/26
f 28/28/28 70/70/70 29/29/29
f 31/31/31 71/71/71 32/32/32
f 34/34/34 72/72/72 35/35/35
f 37/37/37 73/73/73 38/38/38
f 40/40/40 74/74/74 41/41/41
f 43/43/43 75/75/75 44/44/44
f 46/46/46 76/76/76 47/47/47
f 49/49/49 77/77/77 50/50/50
f 52/52/52 78/78/78 53/53/53
f 55/55/55 79/79/79 56/56/56
f 58/58/58 80/80/80 59/59/59
