v 0.48 -0.038476 -0.0
v -0.48 1.881524 0.0
v -0.48 -0.038476 -0.0
v 0.48 1.881524 -0.0
v -0.48 3.801524 0.0
v -0.48 1.881524 -0.0
v 0.336 1.862254 -0.96
v -0.336 3.206254 -0.96
v -0.336 1.862254 -0.96
v -0.0 1.881524 -0.48
v 0.0 3.801524 0.48
v -0.0 1.881524 0.48
v -0.0 -0.038476 -0.48
v 0.0 1.881524 0.48
v -0.0 -0.038476 0.48
v 0.0 1.862254 -0.624
v -0.0 3.206254 -1.296
v 0.0 1.862254 -1.296
v 0.48 1.881524 -0.96
v -0.48 1.881524 -0.0
v -0.48 1.881524 -0.96
v -0.48 1.881524 0.0
v 0.48 -0.038476 -0.0
v -0.48 -0.038476 -0.0
v -0.48 3.801524 0.0
v 0.48 1.881524 -0.0
v -0.48 1.881524 -0.0
v -0.336 3.206254 -0.96
v 0.336 1.862254 -0.96
v -0.336 1.862254 -0.96
v 0.0 3.801524 0.48
v -0.0 1.881524 -0.48
v -0.0 1.881524 0.48
v 0.0 1.881524 0.48
v -0.0 -0.038476 -0.48
v -0.0 -0.038476 0.48
v -0.0 3.206254 -1.296
v 0.0 1.862254 -0.624
v 0.0 1.862254 -1.296
v -0.48 1.881524 -0.0
v 0.48 1.881524 -0.96
v -0.48 1.881524 -0.96
v 0.48 1.881524 0.0
v 0.48 3.801524 0.0
v 0.336 3.206254 -0.96
v 0.0 3.801524 -0.48
v 0.0 1.881524 -0.48
v -0.0 3.206254 -0.624
v 0.48 1.881524 -0.0
v 0.48 1.881524 0.0
v 0.48 3.801524 0.0
v 0.336 3.206254 -0.96
v 0.0 3.801524 -0.48
v 0.0 1.881524 -0.48
v -0.0 3.206254 -0.624
v 0.48 1.881524 -0.0
vt 0.2182 0.12489998
vt 0.1881 0.06349999
vt 0.1881 0.12489998
vt 0.2494 0.12489998
vt 0.2193 0.06349999
vt 0.2193 0.12489998
vt 0.2493 0.1178
vt 0.2195 0.06330001
vt 0.2195 0.1178
vt 0.2494 0.12489998
vt 0.2193 0.06349999
vt 0.2193 0.12489998
vt 0.2182 0.12489998
vt 0.1881 0.06349999
vt 0.1881 0.12489998
vt 0.2493 0.1178
vt 0.2195 0.06330001
vt 0.2195 0.1178
vt 0.2182 0.094200015
vt 0.1881 0.06349999
vt 0.1881 0.094200015
vt 0.1881 0.06349999
vt 0.2182 0.12489998
vt 0.1881 0.12489998
vt 0.2193 0.06349999
vt 0.2494 0.12489998
vt 0.2193 0.12489998
vt 0.2195 0.06330001
vt 0.2493 0.1178
vt 0.2195 0.1178
vt 0.2193 0.06349999
vt 0.2494 0.12489998
vt 0.2193 0.12489998
vt 0.1881 0.06349999
vt 0.2182 0.12489998
vt 0.1881 0.12489998
vt 0.2195 0.06330001
vt 0.2493 0.1178
vt 0.2195 0.1178
vt 0.1881 0.06349999
vt 0.2182 0.094200015
vt 0.1881 0.094200015
vt 0.2182 0.06349999
vt 0.2494 0.06349999
vt 0.2493 0.06330001
vt 0.2494 0.06349999
vt 0.2182 0.06349999
vt 0.2493 0.06330001
vt 0.2182 0.06349999
vt 0.2182 0.06349999
vt 0.2494 0.06349999
vt 0.2493 0.06330001
vt 0.2494 0.06349999
vt 0.2182 0.06349999
vt 0.2493 0.06330001
vt 0.2182 0.06349999
vn 0.0 -0.0 1.0
vn 0.0 -0.0 1.0
vn 0.0 -0.0 1.0
vn 0.0 -0.0 1.0
vn 0.0 -0.0 1.0
vn 0.0 -0.0 1.0
vn 0.0 -0.0 1.0
vn 0.0 -0.0 1.0
vn 0.0 -0.0 1.0
vn 1.0 -0.0 0.0
vn 1.0 -0.0 0.0
vn 1.0 -0.0 0.0
vn 1.0 -0.0 0.0
vn 1.0 -0.0 0.0
vn 1.0 -0.0 0.0
vn -1.0 -0.0 0.0
vn -1.0 -0.0 0.0
vn -1.0 -0.0 0.0
vn 0.0 -1.0 0.0
vn 0.0 -1.0 0.0
vn 0.0 -1.0 0.0
vn 0.0 0.0 -1.0
vn 0.0 0.0 -1.0
vn 0.0 0.0 -1.0
vn 0.0 0.0 -1.0
vn 0.0 0.0 -1.0
vn 0.0 0.0 -1.0
vn 0.0 0.0 -1.0
vn 0.0 0.0 -1.0
vn 0.0 0.0 -1.0
vn -1.0 -0.0 0.0
vn -1.0 -0.0 0.0
vn -1.0 -0.0 0.0
vn -1.0 -0.0 0.0
vn -1.0 -0.0 0.0
vn -1.0 -0.0 0.0
vn 1.0 -0.0 0.0
vn 1.0 -0.0 0.0
vn 1.0 -0.0 0.0
vn 0.0 1.0 0.0
vn 0.0 1.0 0.0
vn 0.0 1.0 0.0
vn 0.0 -0.0 1.0
vn 0.0 -0.0 1.0
vn 0.0 -0.0 1.0
vn 1.0 -0.0 0.0
vn 1.0 -0.0 0.0
vn -1.0 -0.0 0.0
vn 0.0 -1.0 0.0
vn 0.0 0.0 -1.0
vn 0.0 0.0 -1.0
vn 0.0 0.0 -1.0
vn -1.0 -0.0 0.0
vn -1.0 -0.0 0.0
vn 1.0 -0.0 0.0
vn 0.0 1.0 0.0
f 1/1/1 2/2/2 3/3/3
f 4/4/4 5/5/5 6/6/6
f 7/7/7 8/8/8 9/9/9
f 10/10/10 11/11/11 12/12/12
f 13/13/13 14/14/14 15/15/15
f 16/16/16 17/17/17 18/18/18
f 19/19/19 20/20/20 21/21/21
f 22/22/22 23/23/23 24/24/24
f 25/25/25 26/26/26 27/27/27
f 28/28/28 29/29/29 30/30/30
f 31/31/31 32/32/32 33/33/33
f 34/34/34 35/35/35 36/36/36
f 37/37/37 38/38/38 39/39/39
f 40/40/40 41/41/41 42/42/42
f 1/1/1 43/43/43 2/2/2
f 4/4/4 44/44/44 5/5/5
f 7/7/7 45/45/45 8/8/8
f 10/10/10 46/46/46 11/11/11
f 13/13/13 47/47/47 14/14/14
f 16/16/16 48/48/48 17/17/17
f 19/19/19 49/49/49 20/20/20
f 22/22/22 50/50/50 23/23/23
f 25/25/25 51/51/51 26/26/26
f 28/28/28 52/52/52 29/29/29
f 31/31/31 53/53/53 32/32/32
f 34/34/34 54/54/54 35/35/35
f 37/37/37 55/55/55 38/38/38
f 40/40/40 56/56/56 41/41/41
