v 0.02358 -0.400076 0.424238
v -0.057104 3.591476 -0.224612
v -0.039186 3.59913 0.375072
v -0.13829 -0.406246 0.128994
v 0.104768 3.597646 0.070632
v -0.201058 3.59296 0.07983
v -0.039186 3.59913 0.375072
v -0.11987 7.59068 -0.273772
v -0.101956 7.598334 0.32591
v -0.201058 3.59296 0.07983
v 0.042 7.59685 0.02147
v -0.263826 7.592164 0.030666
v -0.101956 7.598334 0.32591
v -0.182638 11.589888 -0.322936
v -0.16472 11.597544 0.27675
v -0.263826 7.592164 0.030666
v -0.020768 11.596056 -0.027694
v -0.326594 11.591368 -0.018498
v -0.039186 3.59913 0.375072
v 0.005664 -0.40773 -0.175446
v 0.02358 -0.400076 0.424238
v 0.104768 3.597646 0.070632
v -0.13829 -0.406246 0.128994
v -0.201058 3.59296 0.07983
v -0.11987 7.59068 -0.273772
v -0.039186 3.59913 0.375072
v -0.101956 7.598334 0.32591
v 0.042 7.59685 0.02147
v -0.201058 3.59296 0.07983
v -0.263826 7.592164 0.030666
v -0.182638 11.589888 -0.322936
v -0.101956 7.598334 0.32591
v -0.16472 11.597544 0.27675
v -0.020768 11.596056 -0.027694
v -0.263826 7.592164 0.030666
v -0.326594 11.591368 -0.018498
v 0.005664 -0.40773 -0.175446
v 0.167536 -0.40156 0.119798
v -0.057104 3.591476 -0.224612
v 0.104768 3.597646 0.070632
v -0.11987 7.59068 -0.273772
v 0.042 7.59685 0.02147
v -0.057104 3.591476 -0.224612
v 0.167536 -0.40156 0.119798
v -0.057104 3.591476 -0.224612
v 0.104768 3.597646 0.070632
v -0.11987 7.59068 -0.273772
v 0.042 7.59685 0.02147
v -3.741838 10.008646 -0.322936
v -0.0908 8.375392 -0.273772
v -0.090164 8.394866 0.32591
v -3.741838 10.008646 -0.322936
v -0.090164 8.394866 0.32591
v -0.0908 8.375392 -0.273772
v 0.042 5.612064 0.137822
v -0.201058 7.563468 -3.358828
v -0.263826 5.606442 0.129166
v 0.042 5.612064 0.137822
v -0.263826 5.606442 0.129166
v -0.201058 7.563468 -3.358828
vt 0.1443 5.9998035E-4
vt 0.1263 0.060599983
vt 0.1443 0.060599983
vt 0.1443 5.9998035E-4
vt 0.1263 0.060599983
vt 0.1443 0.060599983
vt 0.1443 5.9998035E-4
vt 0.1263 0.060599983
vt 0.1443 0.060599983
vt 0.1443 5.9998035E-4
vt 0.1263 0.060599983
vt 0.1443 0.060599983
vt 0.1443 5.9998035E-4
vt 0.1263 0.060599983
vt 0.1443 0.060599983
vt 0.1443 5.9998035E-4
vt 0.1263 0.060599983
vt 0.1443 0.060599983
vt 0.1443 0.060599983
vt 0.1263 5.9998035E-4
vt 0.1443 5.9998035E-4
vt 0.1263 0.060599983
vt 0.1443 5.9998035E-4
vt 0.1443 0.060599983
vt 0.1263 0.060599983
vt 0.1443 5.9998035E-4
vt 0.1443 0.060599983
vt 0.1263 0.060599983
vt 0.1443 5.9998035E-4
vt 0.1443 0.060599983
vt 0.1263 0.060599983
vt 0.1443 5.9998035E-4
vt 0.1443 0.060599983
vt 0.1263 0.060599983
vt 0.1443 5.9998035E-4
vt 0.1443 0.060599983
vt 0.1263 5.9998035E-4
vt 0.1263 5.9998035E-4
vt 0.1263 5.9998035E-4
vt 0.1263 5.9998035E-4
vt 0.1263 5.9998035E-4
vt 0.1263 5.9998035E-4
vt 0.1263 0.060599983
vt 0.1263 5.9998035E-4
vt 0.1263 5.9998035E-4
vt 0.1263 5.9998035E-4
vt 0.1263 5.9998035E-4
vt 0.1263 5.9998035E-4
vt 0.1263 0.060599983
vt 0.1263 5.9998035E-4
vt 0.1443 5.9998035E-4
vt 0.1263 0.060599983
vt 0.1443 5.9998035E-4
vt 0.1263 5.9998035E-4
vt 0.1263 0.060599983
vt 0.1443 5.9998035E-4
vt 0.1443 0.060599983
vt 0.1263 0.060599983
vt 0.1443 0.060599983
vt 0.1443 5.9998035E-4
vn 0.9994 0.0153 -0.0301
vn 0.9994 0.0153 -0.0301
vn 0.9994 0.0153 -0.0301
vn 0.0299 0.0128 0.9995
vn 0.0299 0.0128 0.9995
vn 0.0299 0.0128 0.9995
vn 0.9994 0.0153 -0.0301
vn 0.9994 0.0153 -0.0301
vn 0.9994 0.0153 -0.0301
vn 0.0299 0.0128 0.9995
vn 0.0299 0.0128 0.9995
vn 0.0299 0.0128 0.9995
vn 0.9994 0.0153 -0.0301
vn 0.9994 0.0153 -0.0301
vn 0.9994 0.0153 -0.0301
vn 0.0299 0.0128 0.9995
vn 0.0299 0.0128 0.9995
vn 0.0299 0.0128 0.9995
vn -0.9994 -0.0153 0.0301
vn -0.9994 -0.0153 0.0301
vn -0.9994 -0.0153 0.0301
vn -0.0299 -0.0128 -0.9995
vn -0.0299 -0.0128 -0.9995
vn -0.0299 -0.0128 -0.9995
vn -0.9994 -0.0153 0.0301
vn -0.9994 -0.0153 0.0301
vn -0.9994 -0.0153 0.0301
vn -0.0299 -0.0128 -0.9995
vn -0.0299 -0.0128 -0.9995
vn -0.0299 -0.0128 -0.9995
vn -0.9994 -0.0153 0.0301
vn -0.9994 -0.0153 0.0301
vn -0.9994 -0.0153 0.0301
vn -0.0299 -0.0128 -0.9995
vn -0.0299 -0.0128 -0.9995
vn -0.0299 -0.0128 -0.9995
vn 0.9994 0.0153 -0.0301
vn 0.0299 0.0128 0.9995
vn 0.9994 0.0153 -0.0301
vn 0.0299 0.0128 0.9995
vn 0.9994 0.0153 -0.0301
vn 0.0299 0.0128 0.9995
vn -0.9994 -0.0153 0.0301
vn -0.0299 -0.0128 -0.9995
vn -0.9994 -0.0153 0.0301
vn -0.0299 -0.0128 -0.9995
vn -0.9994 -0.0153 0.0301
vn -0.0299 -0.0128 -0.9995
vn -0.4085 -0.9123 0.0301
vn -0.4085 -0.9123 0.0301
vn -0.4085 -0.9123 0.0301
vn 0.4085 0.9123 -0.0301
vn 0.4085 0.9123 -0.0301
vn 0.4085 0.9123 -0.0301
vn -0.0299 0.8719 0.4887
vn -0.0299 0.8719 0.4887
vn -0.0299 0.8719 0.4887
vn 0.0299 -0.8719 -0.4887
vn 0.0299 -0.8719 -0.4887
vn 0.0299 -0.8719 -0.4887
f 1/1/1 2/2/2 3/3/3
f 4/4/4 5/5/5 6/6/6
f 7/7/7 8/8/8 9/9/9
f 10/10/10 11/11/11 12/12/12
f 13/13/13 14/14/14 15/15/15
f 16/16/16 17/17/17 18/18/18
f 19/19/19 20/20/20 21/21/21
f 22/22/22 23/23/23 24/24/24
f 25/25/25 26/26/26 27/27/27
f 28/28/28 29/29/29 30/30/30
f 31/31/31 32/32/32 33/33/33
f 34/34/34 35/35/35 36/36/36
f 1/1/1 37/37/37 2/2/2
f 4/4/4 38/38/38 5/5/5
f 7/7/7 39/39/39 8/8/8
f 10/10/10 40/40/40 11/11/11
f 13/13/13 41/41/41 14/14/14
f 16/16/16 42/42/42 17/17/17
f 19/19/19 43/43/43 20/20/20
f 22/22/22 44/44/44 23/23/23
f 25/25/25 45/45/45 26/26/26
f 28/28/28 46/46/46 29/29/29
f 31/31/31 47/47/47 32/32/32
f 34/34/34 48/48/48 35/35/35
f 49/49/49 50/50/50 51/51/51
f 52/52/52 53/53/53 54/54/54
f 55/55/55 56/56/56 57/57/57
f 58/58/58 59/59/59 60/60/60
