v -0.01796 4.0 -0.60377
v 0.01796 6.0 0.60377
v 0.01796 4.0 0.60377
v -0.60377 4.0 0.01796
v 0.60377 6.0 -0.01796
v 0.60377 4.0 -0.01796
v -0.60377 2.0 0.01796
v 0.60377 4.0 -0.01796
v 0.60377 2.0 -0.01796
v -0.60377 0.0 0.01796
v 0.60377 2.0 -0.01796
v 0.60377 0.0 -0.01796
v -0.01796 2.0 -0.60377
v 0.01796 4.0 0.60377
v 0.01796 2.0 0.60377
v -0.01796 0.0 -0.60377
v 0.01796 2.0 0.60377
v 0.01796 0.0 0.60377
v -0.035922 6.0 -1.207542
v 0.035922 8.0 1.207542
v 0.035922 6.0 1.207542
v -1.207542 6.0 0.01796
v 1.207542 8.0 -0.01796
v 1.207542 6.0 -0.01796
v -0.773216 4.137602 -1.079226
v -1.016002 5.685026 -1.550036
v -0.479772 4.785122 -0.621256
v -0.264518 4.451732 -1.06856
v -1.5247 5.370896 -1.560702
v -0.80075 5.351634 -1.99734
v -0.452238 3.57109 0.296856
v -0.264518 4.451732 -1.06856
v 0.271714 3.551828 -0.13978
v -0.236984 3.2377 -0.150446
v -0.479772 4.785122 -0.621256
v 0.05646 3.88522 0.307522
v -1.456168 4.713744 -2.23699
v -1.405512 6.90869 -2.249832
v -0.86928 6.008786 -1.321052
v -1.890716 5.370896 -1.349382
v -0.970964 6.251536 -3.137438
v -0.434732 5.351634 -2.20866
v 1.301472 2.783712 0.562164
v 1.770398 4.331136 0.808574
v 0.798416 3.431232 0.35533
v 0.878654 3.09784 0.845204
v 2.193216 4.017006 0.525534
v 1.850634 3.997744 1.298446
v 0.249254 2.2172 -0.38095
v 0.878654 3.09784 0.845204
v -0.093328 2.197938 0.391962
v 0.32949 1.883808 0.108922
v 0.798416 3.431232 0.35533
v -0.173564 2.53133 -0.097912
v 2.52498 3.359854 1.118824
v 2.49085 5.554798 1.158398
v 1.51887 4.654896 0.705156
v 2.37183 4.017006 0.142492
v 2.644 4.897646 2.13473
v 1.672018 3.997744 1.681488
v 0.01796 6.0 0.60377
v -0.01796 4.0 -0.60377
v 0.01796 4.0 0.60377
v 0.60377 6.0 -0.01796
v -0.60377 4.0 0.01796
v 0.60377 4.0 -0.01796
v 0.60377 4.0 -0.01796
v -0.60377 2.0 0.01796
v 0.60377 2.0 -0.01796
v 0.60377 2.0 -0.01796
v -0.60377 0.0 0.01796
v 0.60377 0.0 -0.01796
v 0.01796 4.0 0.60377
v -0.01796 2.0 -0.60377
v 0.01796 2.0 0.60377
v 0.01796 2.0 0.60377
v -0.01796 0.0 -0.60377
v 0.01796 0.0 0.60377
v 0.035922 8.0 1.207542
v -0.035922 6.0 -1.207542
v 0.035922 6.0 1.207542
v 1.207542 8.0 -0.01796
v -1.207542 6.0 0.01796
v 1.207542 6.0 -0.01796
v -1.016002 5.685026 -1.550036
v -0.773216 4.137602 -1.079226
v -0.479772 4.785122 -0.621256
v -0.80075 5.351634 -1.99734
v -0.98847 4.470994 -0.631924
v -0.264518 4.451732 -1.06856
v -0.264518 4.451732 -1.06856
v -0.452238 3.57109 0.296856
v 0.271714 3.551828 -0.13978
v -0.479772 4.785122 -0.621256
v -0.236984 3.2377 -0.150446
v 0.05646 3.88522 0.307522
v -0.86928 6.008786 -1.321052
v -1.9924 5.613646 -3.16577
v -1.456168 4.713744 -2.23699
v -0.970964 6.251536 -3.137438
v -1.890716 5.370896 -1.349382
v -0.434732 5.351634 -2.20866
v 1.770398 4.331136 0.808574
v 1.301472 2.783712 0.562164
v 0.798416 3.431232 0.35533
v 0.878654 3.09784 0.845204
v 2.193216 4.017006 0.525534
v 1.221234 3.117104 0.072292
v 0.878654 3.09784 0.845204
v 0.249254 2.2172 -0.38095
v -0.093328 2.197938 0.391962
v 0.798416 3.431232 0.35533
v 0.32949 1.883808 0.108922
v -0.173564 2.53133 -0.097912
v 2.49085 5.554798 1.158398
v 2.52498 3.359854 1.118824
v 1.51887 4.654896 0.705156
v 1.672018 3.997744 1.681488
v 3.343812 4.916908 0.595734
v 2.37183 4.017006 0.142492
v -0.01796 6.0 -0.60377
v -0.60377 6.0 0.01796
v -0.60377 4.0 0.01796
v -0.60377 2.0 0.01796
v -0.01796 4.0 -0.60377
v -0.01796 2.0 -0.60377
v -0.035922 8.0 -1.207542
v -1.207542 8.0 0.01796
v -1.309446 5.037504 -2.008006
v -0.98847 4.470994 -0.631924
v -0.98847 4.470994 -0.631924
v -0.773216 4.137602 -1.079226
v -1.9924 5.613646 -3.16577
v -2.426948 6.270798 -2.278162
v 2.273452 3.683614 1.015406
v 1.221234 3.117104 0.072292
v 1.221234 3.117104 0.072292
v 1.301472 2.783712 0.562164
v 3.496962 4.259756 1.572066
v 3.343812 4.916908 0.595734
v -0.01796 6.0 -0.60377
v -0.60377 6.0 0.01796
v -0.60377 4.0 0.01796
v -0.60377 2.0 0.01796
v -0.01796 4.0 -0.60377
v -0.01796 2.0 -0.60377
v -0.035922 8.0 -1.207542
v -1.207542 8.0 0.01796
v -1.309446 5.037504 -2.008006
v -1.5247 5.370896 -1.560702
v -0.98847 4.470994 -0.631924
v -0.773216 4.137602 -1.079226
v -1.405512 6.90869 -2.249832
v -2.426948 6.270798 -2.278162
v 2.273452 3.683614 1.015406
v 1.850634 3.997744 1.298446
v 1.221234 3.117104 0.072292
v 1.301472 2.783712 0.562164
v 3.496962 4.259756 1.572066
v 2.644 4.897646 2.13473
vt 0.9941 0.125
vt 0.9746 0.0898
vt 0.9746 0.125
vt 0.9941 0.125
vt 0.9746 0.0898
vt 0.9746 0.125
vt 0.9941 0.125
vt 0.9746 0.0898
vt 0.9746 0.125
vt 0.9941 0.125
vt 0.9746 0.0898
vt 0.9746 0.125
vt 0.9941 0.125
vt 0.9746 0.0898
vt 0.9746 0.125
vt 0.9941 0.125
vt 0.9746 0.0898
vt 0.9746 0.125
vt 1.0 0.0898
vt 0.9648 0.0625
vt 0.9648 0.0898
vt 1.0 0.0898
vt 0.9648 0.0625
vt 0.9648 0.0898
vt 0.9941 0.125
vt 0.9746 0.0898
vt 0.9746 0.125
vt 0.9746 0.125
vt 0.9941 0.0898
vt 0.9746 0.0898
vt 0.9941 0.125
vt 0.9746 0.0898
vt 0.9746 0.125
vt 0.9941 0.125
vt 0.9746 0.0898
vt 0.9746 0.125
vt 1.0 0.0898
vt 0.9648 0.0625
vt 0.9648 0.0898
vt 1.0 0.0898
vt 0.9648 0.0625
vt 0.9648 0.0898
vt 0.9941 0.125
vt 0.9746 0.0898
vt 0.9746 0.125
vt 0.9746 0.125
vt 0.9941 0.0898
vt 0.9746 0.0898
vt 0.9941 0.125
vt 0.9746 0.0898
vt 0.9746 0.125
vt 0.9941 0.125
vt 0.9746 0.0898
vt 0.9746 0.125
vt 1.0 0.0898
vt 0.9648 0.0625
vt 0.9648 0.0898
vt 1.0 0.0898
vt 0.9648 0.0625
vt 0.9648 0.0898
vt 0.9746 0.0898
vt 0.9941 0.125
vt 0.9746 0.125
vt 0.9746 0.0898
vt 0.9941 0.125
vt 0.9746 0.125
vt 0.9746 0.0898
vt 0.9941 0.125
vt 0.9746 0.125
vt 0.9746 0.0898
vt 0.9941 0.125
vt 0.9746 0.125
vt 0.9746 0.0898
vt 0.9941 0.125
vt 0.9746 0.125
vt 0.9746 0.0898
vt 0.9941 0.125
vt 0.9746 0.125
vt 0.9648 0.0625
vt 1.0 0.0898
vt 0.9648 0.0898
vt 0.9648 0.0625
vt 1.0 0.0898
vt 0.9648 0.0898
vt 0.9746 0.0898
vt 0.9941 0.125
vt 0.9746 0.125
vt 0.9746 0.0898
vt 0.9941 0.125
vt 0.9746 0.125
vt 0.9746 0.0898
vt 0.9941 0.125
vt 0.9746 0.125
vt 0.9746 0.0898
vt 0.9941 0.125
vt 0.9746 0.125
vt 0.9648 0.0898
vt 1.0 0.0625
vt 1.0 0.0898
vt 0.9648 0.0625
vt 1.0 0.0898
vt 0.9648 0.0898
vt 0.9746 0.0898
vt 0.9941 0.125
vt 0.9746 0.125
vt 0.9746 0.125
vt 0.9941 0.0898
vt 0.9941 0.125
vt 0.9746 0.0898
vt 0.9941 0.125
vt 0.9746 0.125
vt 0.9746 0.0898
vt 0.9941 0.125
vt 0.9746 0.125
vt 0.9648 0.0625
vt 1.0 0.0898
vt 0.9648 0.0898
vt 0.9648 0.0898
vt 1.0 0.0625
vt 1.0 0.0898
vt 0.9941 0.0898
vt 0.9941 0.0898
vt 0.9941 0.0898
vt 0.9941 0.0898
vt 0.9941 0.0898
vt 0.9941 0.0898
vt 1.0 0.0625
vt 1.0 0.0625
vt 0.9941 0.0898
vt 0.9941 0.125
vt 0.9941 0.0898
vt 0.9941 0.0898
vt 1.0 0.0625
vt 1.0 0.0625
vt 0.9941 0.0898
vt 0.9941 0.125
vt 0.9941 0.0898
vt 0.9941 0.0898
vt 1.0 0.0625
vt 1.0 0.0625
vt 0.9941 0.0898
vt 0.9941 0.0898
vt 0.9941 0.0898
vt 0.9941 0.0898
vt 0.9941 0.0898
vt 0.9941 0.0898
vt 1.0 0.0625
vt 1.0 0.0625
vt 0.9941 0.0898
vt 0.9941 0.0898
vt 0.9941 0.0898
vt 0.9941 0.0898
vt 0.9648 0.0625
vt 1.0 0.0625
vt 0.9941 0.0898
vt 0.9746 0.0898
vt 0.9941 0.0898
vt 0.9941 0.0898
vt 1.0 0.0625
vt 0.9648 0.0625
vn 0.9996 0.0 -0.0297
vn 0.9996 0.0 -0.0297
vn 0.9996 0.0 -0.0297
vn -0.0297 0.0 -0.9996
vn -0.0297 0.0 -0.9996
vn -0.0297 0.0 -0.9996
vn -0.0297 0.0 -0.9996
vn -0.0297 0.0 -0.9996
vn -0.0297 0.0 -0.9996
vn -0.0297 0.0 -0.9996
vn -0.0297 0.0 -0.9996
vn -0.0297 0.0 -0.9996
vn 0.9996 0.0 -0.0297
vn 0.9996 0.0 -0.0297
vn 0.9996 0.0 -0.0297
vn 0.9996 0.0 -0.0297
vn 0.9996 0.0 -0.0297
vn 0.9996 0.0 -0.0297
vn 0.9996 0.0 -0.0297
vn 0.9996 0.0 -0.0297
vn 0.9996 0.0 -0.0297
vn -0.0149 0.0 -0.9999
vn -0.0149 0.0 -0.9999
vn -0.0149 0.0 -0.9999
vn 0.8561 -0.0228 -0.5163
vn 0.8561 -0.0228 -0.5163
vn 0.8561 -0.0228 -0.5163
vn -0.347 -0.7657 -0.5416
vn -0.347 -0.7657 -0.5416
vn -0.347 -0.7657 -0.5416
vn -0.347 -0.7657 -0.5416
vn -0.347 -0.7657 -0.5416
vn -0.347 -0.7657 -0.5416
vn 0.8561 -0.0228 -0.5163
vn 0.8561 -0.0228 -0.5163
vn 0.8561 -0.0228 -0.5163
vn 0.8561 -0.0228 -0.5163
vn 0.8561 -0.0228 -0.5163
vn 0.8561 -0.0228 -0.5163
vn -0.3342 -0.766 -0.5492
vn -0.3342 -0.766 -0.5492
vn -0.3342 -0.766 -0.5492
vn -0.4051 -0.0228 0.914
vn -0.4051 -0.0228 0.914
vn -0.4051 -0.0228 0.914
vn 0.5949 -0.7657 0.2446
vn 0.5949 -0.7657 0.2446
vn 0.5949 -0.7657 0.2446
vn 0.5949 -0.7657 0.2446
vn 0.5949 -0.7657 0.2446
vn 0.5949 -0.7657 0.2446
vn -0.4051 -0.0228 0.914
vn -0.4051 -0.0228 0.914
vn -0.4051 -0.0228 0.914
vn -0.4051 -0.0228 0.914
vn -0.4051 -0.0228 0.914
vn -0.4051 -0.0228 0.914
vn 0.5888 -0.766 0.2581
vn 0.5888 -0.766 0.2581
vn 0.5888 -0.766 0.2581
vn -0.9996 0.0 0.0297
vn -0.9996 0.0 0.0297
vn -0.9996 0.0 0.0297
vn 0.0297 0.0 0.9996
vn 0.0297 0.0 0.9996
vn 0.0297 0.0 0.9996
vn 0.0297 0.0 0.9996
vn 0.0297 0.0 0.9996
vn 0.0297 0.0 0.9996
vn 0.0297 0.0 0.9996
vn 0.0297 0.0 0.9996
vn 0.0297 0.0 0.9996
vn -0.9996 0.0 0.0297
vn -0.9996 0.0 0.0297
vn -0.9996 0.0 0.0297
vn -0.9996 0.0 0.0297
vn -0.9996 0.0 0.0297
vn -0.9996 0.0 0.0297
vn -0.9996 0.0 0.0297
vn -0.9996 0.0 0.0297
vn -0.9996 0.0 0.0297
vn 0.0149 0.0 0.9999
vn 0.0149 0.0 0.9999
vn 0.0149 0.0 0.9999
vn -0.8561 0.0228 0.5163
vn -0.8561 0.0228 0.5163
vn -0.8561 0.0228 0.5163
vn 0.347 0.7657 0.5416
vn 0.347 0.7657 0.5416
vn 0.347 0.7657 0.5416
vn 0.347 0.7657 0.5416
vn 0.347 0.7657 0.5416
vn 0.347 0.7657 0.5416
vn -0.8561 0.0228 0.5163
vn -0.8561 0.0228 0.5163
vn -0.8561 0.0228 0.5163
vn -0.8561 0.0228 0.5163
vn -0.8561 0.0228 0.5163
vn -0.8561 0.0228 0.5163
vn 0.3342 0.766 0.5492
vn 0.3342 0.766 0.5492
vn 0.3342 0.766 0.5492
vn 0.4051 0.0228 -0.914
vn 0.4051 0.0228 -0.914
vn 0.4051 0.0228 -0.914
vn -0.5949 0.7657 -0.2446
vn -0.5949 0.7657 -0.2446
vn -0.5949 0.7657 -0.2446
vn -0.5949 0.7657 -0.2446
vn -0.5949 0.7657 -0.2446
vn -0.5949 0.7657 -0.2446
vn 0.4051 0.0228 -0.914
vn 0.4051 0.0228 -0.914
vn 0.4051 0.0228 -0.914
vn 0.4051 0.0228 -0.914
vn 0.4051 0.0228 -0.914
vn 0.4051 0.0228 -0.914
vn -0.5888 0.766 -0.2581
vn -0.5888 0.766 -0.2581
vn -0.5888 0.766 -0.2581
vn 0.9996 0.0 -0.0297
vn -0.0297 0.0 -0.9996
vn -0.0297 0.0 -0.9996
vn -0.0297 0.0 -0.9996
vn 0.9996 0.0 -0.0297
vn 0.9996 0.0 -0.0297
vn 0.9996 0.0 -0.0297
vn -0.0149 0.0 -0.9999
vn 0.8561 -0.0228 -0.5163
vn -0.347 -0.7657 -0.5416
vn -0.347 -0.7657 -0.5416
vn 0.8561 -0.0228 -0.5163
vn 0.8561 -0.0228 -0.5163
vn -0.3342 -0.766 -0.5492
vn -0.4051 -0.0228 0.914
vn 0.5949 -0.7657 0.2446
vn 0.5949 -0.7657 0.2446
vn -0.4051 -0.0228 0.914
vn -0.4051 -0.0228 0.914
vn 0.5888 -0.766 0.2581
vn -0.9996 0.0 0.0297
vn 0.0297 0.0 0.9996
vn 0.0297 0.0 0.9996
vn 0.0297 0.0 0.9996
vn -0.9996 0.0 0.0297
vn -0.9996 0.0 0.0297
vn -0.9996 0.0 0.0297
vn 0.0149 0.0 0.9999
vn -0.8561 0.0228 0.5163
vn 0.347 0.7657 0.5416
vn 0.347 0.7657 0.5416
vn -0.8561 0.0228 0.5163
vn -0.8561 0.0228 0.5163
vn 0.3342 0.766 0.5492
vn 0.4051 0.0228 -0.914
vn -0.5949 0.7657 -0.2446
vn -0.5949 0.7657 -0.2446
vn 0.4051 0.0228 -0.914
vn 0.4051 0.0228 -0.914
vn -0.5888 0.766 -0.2581
f 1/1/1 2/2/2 3/3/3
f 4/4/4 5/5/5 6/6/6
f 7/7/7 8/8/8 9/9/9
f 10/10/10 11/11/11 12/12/12
f 13/13/13 14/14/14 15/15/15
f 16/16/16 17/17/17 18/18/18
f 19/19/19 20/20/20 21/21/21
f 22/22/22 23/23/23 24/24/24
f 25/25/25 26/26/26 27/27/27
f 28/28/28 29/29/29 30/30/30
f 31/31/31 32/32/32 33/33/33
f 34/34/34 35/35/35 36/36/36
f 37/37/37 38/38/38 39/39/39
f 40/40/40 41/41/41 42/42/42
f 43/43/43 44/44/44 45/45/45
f 46/46/46 47/47/47 48/48/48
f 49/49/49 50/50/50 51/51/51
f 52/52/52 53/53/53 54/54/54
f 55/55/55 56/56/56 57/57/57
f 58/58/58 59/59/59 60/60/60
f 61/61/61 62/62/62 63/63/63
f 64/64/64 65/65/65 66/66/66
f 67/67/67 68/68/68 69/69/69
f 70/70/70 71/71/71 72/72/72
f 73/73/73 74/74/74 75/75/75
f 76/76/76 77/77/77 78/78/78
f 79/79/79 80/80/80 81/81/81
f 82/82/82 83/83/83 84/84/84
f 85/85/85 86/86/86 87/87/87
f 88/88/88 89/89/89 90/90/90
f 91/91/91 92/92/92 93/93/93
f 94/94/94 95/95/95 96/96/96
f 97/97/97 98/98/98 99/99/99
f 100/100/100 101/101/101 102/102/102
f 103/103/103 104/104/104 105/105/105
f 106/106/106 107/107/107 108/108/108
f 109/109/109 110/110/110 111/111/111
f 112/112/112 113/113/113 114/114/114
f 115/115/115 116/116/116 117/117/117
f 118/118/118 119/119/119 120/120/120
f 1/1/1 121/121/121 2/2/2
f 4/4/4 122/122/122 5/5/5
f 7/7/7 123/123/123 8/8/8
f 10/10/10 124/124/124 11/11/11
f 13/13/13 125/125/125 14/14/14
f 16/16/16 126/126/126 17/17/17
f 19/19/19 127/127/127 20/20/20
f 22/22/22 128/128/128 23/23/23
f 25/25/25 129/129/129 26/26/26
f 28/28/28 130/130/130 29/29/29
f 31/31/31 131/131/131 32/32/32
f 34/34/34 132/132/132 35/35/35
f 37/37/37 133/133/133 38/38/38
f 40/40/40 134/134/134 41/41/41
f 43/43/43 135/135/135 44/44/44
f 46/46/46 136/136/136 47/47/47
f 49/49/49 137/137/137 50/50/50
f 52/52/52 138/138/138 53/53/53
f 55/55/55 139/139/139 56/56/56
f 58/58/58 140/140/140 59/59/59
f 61/61/61 141/141/141 62/62/62
f 64/64/64 142/142/142 65/65/65
f 67/67/67 143/143/143 68/68/68
f 70/70/70 144/144/144 71/71/71
f 73/73/73 145/145/145 74/74/74
f 76/76/76 146/146/146 77/77/77
f 79/79/79 147/147/147 80/80/80
f 82/82/82 148/148/148 83/83/83
f 85/85/85 149/149/149 86/86/86
f 88/88/88 150/150/150 89/89/89
f 91/91/91 151/151/151 92/92/92
f 94/94/94 152/152/152 95/95/95
f 97/97/97 153/153/153 98/98/98
f 100/100/100 154/154/154 101/101/101
f 103/103/103 155/155/155 104/104/104
f 106/106/106 156/156/156 107/107/107
f 109/109/109 157/157/157 110/110/110
f 112/112/112 158/158/158 113/113/113
f 115/115/115 159/159/159 116/116/116
f 118/118/118 160/160/160 119/119/119
