v 1.902114 10.333334 -0.618016
v 1.17557 10.333334 1.618052
v 0.0 12.333334 1.8E-5
v 1.17557 10.333334 1.618052
v -1.17557 10.333334 1.618052
v 0.0 12.333334 1.8E-5
v 2.64591 8.302666 1.653366
v -0.754796 8.30266 3.027342
v 0.0 10.486668 1.8E-5
v -0.754796 8.30266 3.027342
v -3.1124 8.302668 0.217658
v 0.0 10.486668 1.8E-5
v 3.951172 6.513742 -0.962122
v 2.143048 6.383908 3.447948
v -0.069926 8.32127 0.020062
v 2.143048 6.383908 3.447948
v -2.607368 6.187516 3.087554
v -0.069926 8.32127 0.020062
v 4.888856 4.4083 1.975238
v -0.367812 4.408298 5.259974
v 0.0 5.958504 1.2E-5
v -0.367812 4.408298 5.259974
v -5.116176 4.4083 1.275618
v 0.0 5.958504 1.2E-5
v -0.367812 4.408298 5.259974
v 0.0 5.958504 1.2E-5
v -5.116176 4.4083 1.275618
v 4.888856 4.4083 1.975238
v 0.0 5.958504 1.2E-5
v -0.367812 4.408298 5.259974
v 2.143048 6.383908 3.447948
v -0.069926 8.32127 0.020062
v -2.607368 6.187516 3.087554
v 3.951172 6.513742 -0.962122
v -0.069926 8.32127 0.020062
v 2.143048 6.383908 3.447948
v -0.754796 8.30266 3.027342
v 0.0 10.486668 1.8E-5
v -3.1124 8.302668 0.217658
v 2.64591 8.302666 1.653366
v 0.0 10.486668 1.8E-5
v -0.754796 8.30266 3.027342
v 1.17557 10.333334 1.618052
v 0.0 12.333334 1.8E-5
v -1.17557 10.333334 1.618052
v 1.902114 10.333334 -0.618016
v 0.0 12.333334 1.8E-5
v 1.17557 10.333334 1.618052
v 0.0 10.333334 -1.999982
v 1.902114 10.333334 -0.618016
v 0.0 12.333334 1.8E-5
v -1.17557 10.333334 1.618052
v -1.902112 10.333334 -0.618016
v 0.0 12.333334 1.8E-5
v -1.902112 10.333334 -0.618016
v 0.0 10.333334 -1.999982
v 0.0 12.333334 1.8E-5
v 2.390058 8.302666 -2.00548
v 2.64591 8.302666 1.653366
v 0.0 10.486668 1.8E-5
v -3.1124 8.302668 0.217658
v -1.168772 8.302666 -2.892796
v 0.0 10.486668 1.8E-5
v -1.168772 8.302666 -2.892796
v 2.390058 8.302666 -2.00548
v 0.0 10.486668 1.8E-5
v 0.318236 6.397594 -4.048096
v 3.951172 6.513742 -0.962122
v -0.069926 8.32127 0.020062
v -2.607368 6.187516 3.087554
v -3.735164 6.195974 -1.545258
v -0.069926 8.32127 0.020062
v -3.735164 6.195974 -1.545258
v 0.318236 6.397594 -4.048096
v -0.069926 8.32127 0.020062
v 3.38929 4.4083 -4.039186
v 4.888856 4.4083 1.975238
v 0.0 5.958504 1.2E-5
v -5.116176 4.4083 1.275618
v -2.794158 4.4083 -4.471576
v 0.0 5.958504 1.2E-5
v -2.794158 4.4083 -4.471576
v 3.38929 4.4083 -4.039186
v 0.0 5.958504 1.2E-5
v -2.794158 4.4083 -4.471576
v 0.0 5.958504 1.2E-5
v 3.38929 4.4083 -4.039186
v -5.116176 4.4083 1.275618
v 0.0 5.958504 1.2E-5
v -2.794158 4.4083 -4.471576
v 3.38929 4.4083 -4.039186
v 0.0 5.958504 1.2E-5
v 4.888856 4.4083 1.975238
v -3.735164 6.195974 -1.545258
v -0.069926 8.32127 0.020062
v 0.318236 6.397594 -4.048096
v -2.607368 6.187516 3.087554
v -0.069926 8.32127 0.020062
v -3.735164 6.195974 -1.545258
v 0.318236 6.397594 -4.048096
v -0.069926 8.32127 0.020062
v 3.951172 6.513742 -0.962122
v -1.168772 8.302666 -2.892796
v 0.0 10.486668 1.8E-5
v 2.390058 8.302666 -2.00548
v -3.1124 8.302668 0.217658
v 0.0 10.486668 1.8E-5
v -1.168772 8.302666 -2.892796
v 2.390058 8.302666 -2.00548
v 0.0 10.486668 1.8E-5
v 2.64591 8.302666 1.653366
v -1.902112 10.333334 -0.618016
v 0.0 12.333334 1.8E-5
v 0.0 10.333334 -1.999982
v -1.17557 10.333334 1.618052
v 0.0 12.333334 1.8E-5
v -1.902112 10.333334 -0.618016
v 0.0 10.333334 -1.999982
v 0.0 12.333334 1.8E-5
v 1.902114 10.333334 -0.618016
v -0.007072 -0.0 0.431336
v -0.00707 4.0 0.431336
v -0.431334 4.0 0.007072
v -0.431336 -0.0 0.007072
v 0.431334 0.0 -0.007072
v 0.007072 4.0 -0.431334
v 0.431336 4.0 -0.00707
v 0.00707 0.0 -0.431334
v -0.007072 -0.0 0.431336
v 0.431336 4.0 -0.00707
v -0.00707 4.0 0.431336
v 0.431334 0.0 -0.007072
v -0.431336 -0.0 0.007072
v -0.431334 4.0 0.007072
v 0.007072 4.0 -0.431334
v 0.00707 0.0 -0.431334
v -0.007072 4.0 0.431336
v -0.00495 8.0 0.301934
v -0.301934 8.0 0.00495
v -0.431336 4.0 0.007072
v 0.431334 4.0 -0.00707
v 0.00495 8.0 -0.301934
v 0.301934 8.0 -0.00495
v 0.00707 4.0 -0.431336
v -0.007072 4.0 0.431336
v 0.301934 8.0 -0.00495
v -0.00495 8.0 0.301934
v 0.431334 4.0 -0.00707
v -0.431336 4.0 0.007072
v -0.301934 8.0 0.00495
v 0.00495 8.0 -0.301934
v 0.00707 4.0 -0.431336
v -0.00495 8.0 0.301934
v -0.001732 12.0 0.105678
v -0.105676 12.0 0.001732
v -0.301934 8.0 0.00495
v 0.301934 8.0 -0.00495
v 0.001732 12.0 -0.105676
v 0.105678 12.0 -0.001732
v 0.00495 8.0 -0.301934
v -0.00495 8.0 0.301934
v 0.105678 12.0 -0.001732
v -0.001732 12.0 0.105678
v 0.301934 8.0 -0.00495
v -0.301934 8.0 0.00495
v -0.105676 12.0 0.001732
v 0.001732 12.0 -0.105676
v 0.00495 8.0 -0.301934
vt 0.3503 0.119400024
vt 0.2743 0.119400024
vt 0.3123 0.067200005
vt 0.2743 0.119400024
vt 0.2509 0.047200024
vt 0.3123 0.067200005
vt 0.3503 0.119400024
vt 0.2743 0.119400024
vt 0.3123 0.067200005
vt 0.2743 0.119400024
vt 0.2509 0.047200024
vt 0.3123 0.067200005
vt 0.3503 0.119400024
vt 0.2743 0.119400024
vt 0.3123 0.067200005
vt 0.2743 0.119400024
vt 0.2509 0.047200024
vt 0.3123 0.067200005
vt 0.3503 0.119400024
vt 0.2743 0.119400024
vt 0.3123 0.067200005
vt 0.2743 0.119400024
vt 0.2509 0.047200024
vt 0.3123 0.067200005
vt 0.2743 0.119400024
vt 0.3123 0.067200005
vt 0.2509 0.047200024
vt 0.3503 0.119400024
vt 0.3123 0.067200005
vt 0.2743 0.119400024
vt 0.2743 0.119400024
vt 0.3123 0.067200005
vt 0.2509 0.047200024
vt 0.3503 0.119400024
vt 0.3123 0.067200005
vt 0.2743 0.119400024
vt 0.2743 0.119400024
vt 0.3123 0.067200005
vt 0.2509 0.047200024
vt 0.3503 0.119400024
vt 0.3123 0.067200005
vt 0.2743 0.119400024
vt 0.2743 0.119400024
vt 0.3123 0.067200005
vt 0.2509 0.047200024
vt 0.3503 0.119400024
vt 0.3123 0.067200005
vt 0.2743 0.119400024
vt 0.3737 0.047200024
vt 0.3503 0.119400024
vt 0.3123 0.067200005
vt 0.2509 0.047200024
vt 0.3123 0.0026000142
vt 0.3123 0.067200005
vt 0.3123 0.0026000142
vt 0.3737 0.047200024
vt 0.3123 0.067200005
vt 0.3737 0.047200024
vt 0.3503 0.119400024
vt 0.3123 0.067200005
vt 0.2509 0.047200024
vt 0.3123 0.0026000142
vt 0.3123 0.067200005
vt 0.3123 0.0026000142
vt 0.3737 0.047200024
vt 0.3123 0.067200005
vt 0.3737 0.047200024
vt 0.3503 0.119400024
vt 0.3123 0.067200005
vt 0.2509 0.047200024
vt 0.3123 0.0026000142
vt 0.3123 0.067200005
vt 0.3123 0.0026000142
vt 0.3737 0.047200024
vt 0.3123 0.067200005
vt 0.3737 0.047200024
vt 0.3503 0.119400024
vt 0.3123 0.067200005
vt 0.2509 0.047200024
vt 0.3123 0.0026000142
vt 0.3123 0.067200005
vt 0.3123 0.0026000142
vt 0.3737 0.047200024
vt 0.3123 0.067200005
vt 0.3123 0.0026000142
vt 0.3123 0.067200005
vt 0.3737 0.047200024
vt 0.2509 0.047200024
vt 0.3123 0.067200005
vt 0.3123 0.0026000142
vt 0.3737 0.047200024
vt 0.3123 0.067200005
vt 0.3503 0.119400024
vt 0.3123 0.0026000142
vt 0.3123 0.067200005
vt 0.3737 0.047200024
vt 0.2509 0.047200024
vt 0.3123 0.067200005
vt 0.3123 0.0026000142
vt 0.3737 0.047200024
vt 0.3123 0.067200005
vt 0.3503 0.119400024
vt 0.3123 0.0026000142
vt 0.3123 0.067200005
vt 0.3737 0.047200024
vt 0.2509 0.047200024
vt 0.3123 0.067200005
vt 0.3123 0.0026000142
vt 0.3737 0.047200024
vt 0.3123 0.067200005
vt 0.3503 0.119400024
vt 0.3123 0.0026000142
vt 0.3123 0.067200005
vt 0.3737 0.047200024
vt 0.2509 0.047200024
vt 0.3123 0.067200005
vt 0.3123 0.0026000142
vt 0.3737 0.047200024
vt 0.3123 0.067200005
vt 0.3503 0.119400024
vt 0.5625 0.0
vt 0.5625 0.12459999
vt 0.541 0.12459999
vt 0.541 0.0
vt 0.5625 0.0
vt 0.541 0.12459999
vt 0.5625 0.12459999
vt 0.541 0.0
vt 0.5625 0.0
vt 0.541 0.12459999
vt 0.5625 0.12459999
vt 0.541 0.0
vt 0.5625 0.0
vt 0.5625 0.12459999
vt 0.541 0.12459999
vt 0.541 0.0
vt 0.5625 0.0
vt 0.5625 0.12459999
vt 0.541 0.12459999
vt 0.541 0.0
vt 0.5625 0.0
vt 0.541 0.12459999
vt 0.5625 0.12459999
vt 0.541 0.0
vt 0.5625 0.0
vt 0.541 0.12459999
vt 0.5625 0.12459999
vt 0.541 0.0
vt 0.5625 0.0
vt 0.5625 0.12459999
vt 0.541 0.12459999
vt 0.541 0.0
vt 0.5625 0.0
vt 0.5625 0.12459999
vt 0.541 0.12459999
vt 0.541 0.0
vt 0.5625 0.0
vt 0.541 0.12459999
vt 0.5625 0.12459999
vt 0.541 0.0
vt 0.5625 0.0
vt 0.541 0.12459999
vt 0.5625 0.12459999
vt 0.541 0.0
vt 0.5625 0.0
vt 0.5625 0.12459999
vt 0.541 0.12459999
vt 0.541 0.0
vn -0.7394 -0.629 -0.2402
vn -0.7394 -0.629 -0.2402
vn -0.7394 -0.629 -0.2402
vn 0.0 -0.629 -0.7774
vn 0.0 -0.629 -0.7774
vn 0.0 -0.629 -0.7774
vn -0.2451 -0.7562 -0.6067
vn -0.2451 -0.7562 -0.6067
vn -0.2451 -0.7562 -0.6067
vn 0.5012 -0.7562 -0.4206
vn 0.5012 -0.7562 -0.4206
vn 0.5012 -0.7562 -0.4206
vn -0.4428 -0.8724 -0.2072
vn -0.4428 -0.8724 -0.2072
vn -0.4428 -0.8724 -0.2072
vn 0.075 -0.8466 -0.5269
vn 0.075 -0.8466 -0.5269
vn 0.075 -0.8466 -0.5269
vn -0.181 -0.9399 -0.2897
vn -0.181 -0.9399 -0.2897
vn -0.181 -0.9399 -0.2897
vn 0.2195 -0.9399 -0.2616
vn 0.2195 -0.9399 -0.2616
vn 0.2195 -0.9399 -0.2616
vn -0.2195 0.9399 0.2616
vn -0.2195 0.9399 0.2616
vn -0.2195 0.9399 0.2616
vn 0.181 0.9399 0.2897
vn 0.181 0.9399 0.2897
vn 0.181 0.9399 0.2897
vn -0.075 0.8466 0.5269
vn -0.075 0.8466 0.5269
vn -0.075 0.8466 0.5269
vn 0.4428 0.8724 0.2072
vn 0.4428 0.8724 0.2072
vn 0.4428 0.8724 0.2072
vn -0.5012 0.7562 0.4206
vn -0.5012 0.7562 0.4206
vn -0.5012 0.7562 0.4206
vn 0.2451 0.7562 0.6067
vn 0.2451 0.7562 0.6067
vn 0.2451 0.7562 0.6067
vn 0.0 0.629 0.7774
vn 0.0 0.629 0.7774
vn 0.0 0.629 0.7774
vn 0.7394 0.629 0.2402
vn 0.7394 0.629 0.2402
vn 0.7394 0.629 0.2402
vn -0.457 -0.629 0.629
vn -0.457 -0.629 0.629
vn -0.457 -0.629 0.629
vn 0.7394 -0.629 -0.2402
vn 0.7394 -0.629 -0.2402
vn 0.7394 -0.629 -0.2402
vn 0.457 -0.629 0.629
vn 0.457 -0.629 0.629
vn 0.457 -0.629 0.629
vn -0.6527 -0.7562 0.0456
vn -0.6527 -0.7562 0.0456
vn -0.6527 -0.7562 0.0456
vn 0.5549 -0.7562 0.3467
vn 0.5549 -0.7562 0.3467
vn 0.5549 -0.7562 0.3467
vn -0.1583 -0.7562 0.6349
vn -0.1583 -0.7562 0.6349
vn -0.1583 -0.7562 0.6349
vn -0.2987 -0.8735 0.3845
vn -0.2987 -0.8735 0.3845
vn -0.2987 -0.8735 0.3845
vn 0.539 -0.8318 -0.1327
vn 0.539 -0.8318 -0.1327
vn 0.539 -0.8318 -0.1327
vn 0.3081 -0.8484 0.4306
vn 0.3081 -0.8484 0.4306
vn 0.3081 -0.8484 0.4306
vn -0.3314 -0.9399 0.0826
vn -0.3314 -0.9399 0.0826
vn -0.3314 -0.9399 0.0826
vn 0.3167 -0.9399 0.1279
vn 0.3167 -0.9399 0.1279
vn 0.3167 -0.9399 0.1279
vn -0.0238 -0.9399 0.3407
vn -0.0238 -0.9399 0.3407
vn -0.0238 -0.9399 0.3407
vn 0.0238 0.9399 -0.3407
vn 0.0238 0.9399 -0.3407
vn 0.0238 0.9399 -0.3407
vn -0.3167 0.9399 -0.1279
vn -0.3167 0.9399 -0.1279
vn -0.3167 0.9399 -0.1279
vn 0.3314 0.9399 -0.0826
vn 0.3314 0.9399 -0.0826
vn 0.3314 0.9399 -0.0826
vn -0.3081 0.8484 -0.4306
vn -0.3081 0.8484 -0.4306
vn -0.3081 0.8484 -0.4306
vn -0.539 0.8318 0.1327
vn -0.539 0.8318 0.1327
vn -0.539 0.8318 0.1327
vn 0.2987 0.8735 -0.3845
vn 0.2987 0.8735 -0.3845
vn 0.2987 0.8735 -0.3845
vn 0.1583 0.7562 -0.6349
vn 0.1583 0.7562 -0.6349
vn 0.1583 0.7562 -0.6349
vn -0.5549 0.7562 -0.3467
vn -0.5549 0.7562 -0.3467
vn -0.5549 0.7562 -0.3467
vn 0.6527 0.7562 -0.0456
vn 0.6527 0.7562 -0.0456
vn 0.6527 0.7562 -0.0456
vn -0.457 0.629 -0.629
vn -0.457 0.629 -0.629
vn -0.457 0.629 -0.629
vn -0.7394 0.629 0.2402
vn -0.7394 0.629 0.2402
vn -0.7394 0.629 0.2402
vn 0.457 0.629 -0.629
vn 0.457 0.629 -0.629
vn 0.457 0.629 -0.629
vn -0.7071 -0.0 0.7071
vn -0.7071 -0.0 0.7071
vn -0.7071 -0.0 0.7071
vn -0.7071 -0.0 0.7071
vn 0.7071 -0.0 -0.7071
vn 0.7071 -0.0 -0.7071
vn 0.7071 -0.0 -0.7071
vn 0.7071 -0.0 -0.7071
vn 0.7071 -0.0 0.7071
vn 0.7071 -0.0 0.7071
vn 0.7071 -0.0 0.7071
vn 0.7071 -0.0 0.7071
vn -0.7071 0.0 -0.7071
vn -0.7071 0.0 -0.7071
vn -0.7071 0.0 -0.7071
vn -0.7071 0.0 -0.7071
vn -0.7069 0.0232 0.7069
vn -0.7068 0.0291 0.7068
vn -0.7068 0.0291 0.7068
vn -0.7069 0.0232 0.7069
vn 0.7069 0.0232 -0.7069
vn 0.7068 0.0291 -0.7068
vn 0.7068 0.0291 -0.7068
vn 0.7069 0.0232 -0.7069
vn 0.7069 0.0225 0.7069
vn 0.7068 0.0282 0.7068
vn 0.7068 0.0282 0.7068
vn 0.7069 0.0225 0.7069
vn -0.7069 0.0225 -0.7069
vn -0.7068 0.0282 -0.7068
vn -0.7068 0.0282 -0.7068
vn -0.7069 0.0225 -0.7069
vn -0.7068 0.0291 0.7068
vn -0.7067 0.0352 0.7067
vn -0.7067 0.0352 0.7067
vn -0.7068 0.0291 0.7068
vn 0.7068 0.0291 -0.7068
vn 0.7067 0.0352 -0.7067
vn 0.7067 0.0352 -0.7067
vn 0.7068 0.0291 -0.7068
vn 0.7068 0.0282 0.7068
vn 0.7067 0.0341 0.7067
vn 0.7067 0.0341 0.7067
vn 0.7068 0.0282 0.7068
vn -0.7068 0.0282 -0.7068
vn -0.7067 0.0341 -0.7067
vn -0.7067 0.0341 -0.7067
vn -0.7068 0.0282 -0.7068
f 1/1/1 2/2/2 3/3/3
f 4/4/4 5/5/5 6/6/6
f 7/7/7 8/8/8 9/9/9
f 10/10/10 11/11/11 12/12/12
f 13/13/13 14/14/14 15/15/15
f 16/16/16 17/17/17 18/18/18
f 19/19/19 20/20/20 21/21/21
f 22/22/22 23/23/23 24/24/24
f 25/25/25 26/26/26 27/27/27
f 28/28/28 29/29/29 30/30/30
f 31/31/31 32/32/32 33/33/33
f 34/34/34 35/35/35 36/36/36
f 37/37/37 38/38/38 39/39/39
f 40/40/40 41/41/41 42/42/42
f 43/43/43 44/44/44 45/45/45
f 46/46/46 47/47/47 48/48/48
f 49/49/49 50/50/50 51/51/51
f 52/52/52 53/53/53 54/54/54
f 55/55/55 56/56/56 57/57/57
f 58/58/58 59/59/59 60/60/60
f 61/61/61 62/62/62 63/63/63
f 64/64/64 65/65/65 66/66/66
f 67/67/67 68/68/68 69/69/69
f 70/70/70 71/71/71 72/72/72
f 73/73/73 74/74/74 75/75/75
f 76/76/76 77/77/77 78/78/78
f 79/79/79 80/80/80 81/81/81
f 82/82/82 83/83/83 84/84/84
f 85/85/85 86/86/86 87/87/87
f 88/88/88 89/89/89 90/90/90
f 91/91/91 92/92/92 93/93/93
f 94/94/94 95/95/95 96/96/96
f 97/97/97 98/98/98 99/99/99
f 100/100/100 101/101/101 102/102/102
f 103/103/103 104/104/104 105/105/105
f 106/106/106 107/107/107 108/108/108
f 109/109/109 110/110/110 111/111/111
f 112/112/112 113/113/113 114/114/114
f 115/115/115 116/116/116 117/117/117
f 118/118/118 119/119/119 120/120/120
f 121/121/121 122/122/122 123/123/123
f 121/121/121 123/123/123 124/124/124
f 125/125/125 126/126/126 127/127/127
f 125/125/125 128/128/128 126/126/126
f 129/129/129 130/130/130 131/131/131
f 129/129/129 132/132/132 130/130/130
f 133/133/133 134/134/134 135/135/135
f 133/133/133 135/135/135 136/136/136
f 137/137/137 138/138/138 139/139/139
f 137/137/137 139/139/139 140/140/140
f 141/141/141 142/142/142 143/143/143
f 141/141/141 144/144/144 142/142/142
f 145/145/145 146/146/146 147/147/147
f 145/145/145 148/148/148 146/146/146
f 149/149/149 150/150/150 151/151/151
f 149/149/149 151/151/151 152/152/152
f 153/153/153 154/154/154 155/155/155
f 153/153/153 155/155/155 156/156/156
f 157/157/157 158/158/158 159/159/159
f 157/157/157 160/160/160 158/158/158
f 161/161/161 162/162/162 163/163/163
f 161/161/161 164/164/164 162/162/162
f 165/165/165 166/166/166 167/167/167
f 165/165/165 167/167/167 168/168/168
